<!-- SOURCE: https://www.svgrepo.com/svg/416627/home-house-ui -->
<svg fill="#ffffff" width="64px" height="64px" viewBox="0 0 512.00 512.00" xmlns="http://www.w3.org/2000/svg">
    <path d="M256,0C114.615,0,0,114.615,0,256s114.615,256,256,256s256-114.615,256-256S397.385,0,256,0z M404.861,263.236 L404.861,263.236c-7.297,7.297-18.066,8.993-26.986,5.104v97.098c0,20.193-16.37,36.562-36.562,36.562H170.688 c-20.193,0-36.562-16.37-36.562-36.562v-97.098c-8.919,3.89-19.689,2.193-26.986-5.104c-9.519-9.519-9.519-24.952,0-34.471 L238.764,97.139h0c9.519-9.519,24.952-9.519,34.471,0l131.625,131.625C414.38,238.283,414.38,253.717,404.861,263.236z"/>
    <path d="M286.469,267.938h-60.938c-6.731,0-12.188,5.457-12.188,12.188v73.125c0,6.731,5.457,12.188,12.188,12.188h60.938 c6.731,0,12.188-5.457,12.188-12.188v-73.125C298.656,273.394,293.2,267.938,286.469,267.938z"/>
</svg>
