<!--
  - Copyright 2014-2023 JetBrains s.r.o. Use of this source code is governed by the Apache 2.0 license.
  -->

<svg width="40" height="40" viewBox="0 0 40 40" fill="none" xmlns="http://www.w3.org/2000/svg">
    <path fill-rule="evenodd" clip-rule="evenodd" d="M23.8469 14.8611C22.6607 12.4913 20.2362 10.9961 17.5861 11C14.5427 10.9989 11.8476 12.965 10.9197 15.8634C9.99166 18.7619 11.0436 21.9277 13.5217 23.6944C15.9998 25.4611 19.3356 25.4233 21.7731 23.601L27.8791 29.707L29.2931 28.293L23.1861 22.187C24.7773 20.0677 25.0332 17.2309 23.8469 14.8611ZM22.5861 18C22.5861 20.7614 20.3475 23 17.5861 23C16.26 23 14.9882 22.4732 14.0506 21.5355C13.1129 20.5979 12.5861 19.3261 12.5861 18C12.5861 15.2386 14.8247 13 17.5861 13C20.3475 13 22.5861 15.2386 22.5861 18Z" fill="white"/>
</svg>
