<svg width="24" height="24" viewBox="0 0 24 24" fill="none" xmlns="http://www.w3.org/2000/svg">
    <path d="M15.142 6.27959C14.5046 5.16406 13.5507 4.26255 12.401 3.68905C11.2513 3.11555 9.95738 2.89579 8.68281 3.05758C7.40823 3.21936 6.21023 3.75543 5.24027 4.59798C4.27032 5.44054 3.57193 6.55175 3.23344 7.79116C2.89494 9.03057 2.93154 10.3425 3.33857 11.5611C3.7456 12.7798 4.50481 13.8504 5.52021 14.6376C6.53561 15.4248 7.76161 15.8932 9.04322 15.9837C10.3248 16.0742 11.6045 15.7827 12.7205 15.146C12.9285 15.0239 13.1296 14.8904 13.323 14.7462L19.5869 21.0001L21.0006 19.5859L14.7397 13.3349C15.4791 12.3225 15.9103 11.1181 15.9817 9.86657C16.0531 8.61499 15.7615 7.36944 15.142 6.27959ZM11.7293 13.4087C10.9565 13.8501 10.0701 14.0525 9.18232 13.9901C8.29452 13.9278 7.44517 13.6036 6.74165 13.0585C6.03813 12.5134 5.51204 11.7719 5.22996 10.9278C4.94788 10.0837 4.92245 9.17491 5.1569 8.31637C5.39135 7.45782 5.87515 6.68809 6.5471 6.10452C7.21904 5.52094 8.04894 5.14971 8.93186 5.03783C9.81478 4.92596 10.711 5.07844 11.5073 5.47598C12.3036 5.87351 12.9641 6.49824 13.4053 7.27117C13.9962 8.30746 14.1516 9.53598 13.8374 10.6868C13.5231 11.8376 12.7649 12.8166 11.7293 13.4087Z" fill="white"/>
</svg>
